#!OML:ASF H:\Pregnant\Project 1\Capture day 1\Session 1\femalepreg.ASF
:FULLY-SPECIFIED
:DEGREES
1422
root 6.1576 2.22908 16.7372 -67.2629 3.95326 -104.973
lowerback -3.54625 3.17584 -1.76719
upperback 2.2935 4.31304 4.39185
thorax 3.89376 2.09707 5.8474
lowerneck -12.0015 0.576291 0.77256
upperneck 28.9964 -1.1672 9.29647
head 11.4859 0.897118 3.197
rclavicle -3.49861e-014 -6.52014e-014
rhumerus -21.2239 57.749 -90.9562
rradius 88.2338
rwrist 22.4159
rhand -66.4733 153.313
rfingers 7.12502
rthumb -38.2899 -540.967
lclavicle -3.49861e-014 -6.52014e-014
lhumerus 95.9425 -3.70593 39.6577
lradius 30.5402
lwrist 10.7459
lhand 22.1113 21.1656
lfingers 7.12502
lthumb 46.4966 44.0504
rfemur -59.6088 -6.64693 42.0067
rtibia 98.3845
rfoot 7.41048 4.37785
rtoes -22.8181
lfemur -69.655 -18.1859 -25.6068
ltibia 120.527
lfoot 28.573 11.2282
ltoes 83.7142
1423
root 6.15808 2.22951 16.7365 -67.2648 3.96018 -104.98
lowerback -3.54775 3.17135 -1.75058
upperback 2.2968 4.30596 4.37438
thorax 3.90128 2.09365 5.81949
lowerneck -11.9858 0.549295 0.757129
upperneck 28.9497 -1.1951 9.26489
head 11.4656 0.8761 3.18162
rclavicle -6.36111e-015 1.59028e-014
rhumerus -21.1949 57.7594 -90.9695
rradius 88.2095
rwrist 22.4275
rhand -66.4806 154.105
rfingers 7.12502
rthumb -38.2968 -540.177
lclavicle -6.36111e-015 1.59028e-014
lhumerus 95.9472 -3.71136 39.6499
lradius 30.5432
lwrist 10.7223
lhand 22.1236 21.1649
lfingers 7.12502
lthumb 46.508 44.0449
rfemur -59.6053 -6.65777 42.0044
rtibia 98.3763
rfoot 7.41608 4.3779
rtoes -22.8068
lfemur -69.6563 -18.1136 -25.6059
ltibia 120.515
lfoot 28.5741 11.2108
ltoes 83.7504
1424
root 6.1585 2.22994 16.7359 -67.268 3.96733 -104.986
lowerback -3.55106 3.1655 -1.73407
upperback 2.30407 4.29698 4.35719
thorax 3.91413 2.08908 5.7922
lowerneck -11.9978 0.49327 0.81166
upperneck 29.0153 -1.27401 9.1888
head 11.4977 0.838133 3.1362
rclavicle -5.08889e-014 -4.6118e-014
rhumerus -21.1535 57.7742 -90.9723
rradius 88.1874
rwrist 22.4342
rhand -66.486 154.861
rfingers 7.12502
rthumb -38.3019 -539.423
lclavicle -5.08889e-014 -4.6118e-014
lhumerus 95.958 -3.68879 39.6056
lradius 30.5536
lwrist 10.7354
lhand 22.1395 21.1791
lfingers 7.12502
lthumb 46.5227 44.0527
rfemur -59.6004 -6.66858 42.0014
rtibia 98.3704
rfoot 7.41715 4.37486
rtoes -22.7989
lfemur -69.6547 -18.0496 -25.6063
ltibia 120.505
lfoot 28.5511 11.2405
ltoes 83.7857
1425
root 6.15854 2.23029 16.736 -67.2732 3.97351 -104.99
lowerback -3.55561 3.15926 -1.71889
upperback 2.31468 4.28752 4.34135
thorax 3.93103 2.0841 5.76734
lowerneck -12.0377 0.432188 0.887833
upperneck 29.1397 -1.36293 9.09395
head 11.5589 0.798177 3.08158
rclavicle 3.81667e-014 3.4191e-014
rhumerus -21.1031 57.7911 -90.966
rradius 88.1696
rwrist 22.4238
rhand -66.4539 154.804
rfingers 7.12502
rthumb -38.2716 -539.471
lclavicle 3.81667e-014 3.4191e-014
lhumerus 95.9757 -3.6465 39.5377
lradius 30.5682
lwrist 10.7746
lhand 22.157 21.2083
lfingers 7.12502
lthumb 46.539 44.075
rfemur -59.5984 -6.67707 41.9998
rtibia 98.3719
rfoot 7.41717 4.36698
rtoes -22.7903
lfemur -69.6499 -18.0445 -25.6085
ltibia 120.501
lfoot 28.4821 11.3596
ltoes 83.8198
1426
root 6.15832 2.23055 16.7367 -67.2799 3.9795 -104.992
lowerback -3.56115 3.15293 -1.7057
upperback 2.32753 4.27801 4.32572
thorax 3.95066 2.07895 5.74401
lowerneck -12.0933 0.375588 0.967882
upperneck 29.2845 -1.44582 8.994
head 11.631 0.76183 3.02605
rclavicle -1.27222e-014 -3.4191e-014
rhumerus -21.0488 57.8101 -90.9554
rradius 88.1572
rwrist 22.3994
rhand -66.3918 154.126
rfingers 7.12502
rthumb -38.213 -540.133
lclavicle -1.27222e-014 -3.4191e-014
lhumerus 95.9965 -3.59305 39.4552
lradius 30.5854
lwrist 10.8256
lhand 22.1811 21.2439
lfingers 7.12502
lthumb 46.5613 44.101
rfemur -59.5979 -6.68306 41.9982
rtibia 98.3786
rfoot 7.41612 4.35734
rtoes -22.78
lfemur -69.6429 -18.0843 -25.6136
ltibia 120.503
lfoot 28.3796 11.5456
ltoes 83.8526
1427
root 6.15781 2.2307 16.7379 -67.2877 3.98436 -104.993
lowerback -3.56693 3.14596 -1.69259
upperback 2.34241 4.26762 4.31012
thorax 3.97261 2.07328 5.72084
lowerneck -12.1329 0.332087 1.01849
upperneck 29.3632 -1.5066 8.91635
head 11.6727 0.73259 2.98369
rclavicle -6.36111e-014 -4.37326e-014
rhumerus -20.9917 57.8322 -90.9433
rradius 88.1456
rwrist 22.3703
rhand -66.3474 153.649
rfingers 7.12502
rthumb -38.1711 -540.598
lclavicle -6.36111e-014 -4.37326e-014
lhumerus 96.0194 -3.52415 39.3513
lradius 30.607
lwrist 10.8979
lhand 22.2033 21.286
lfingers 7.12502
lthumb 46.5818 44.1343
rfemur -59.5999 -6.68716 41.9978
rtibia 98.39
rfoot 7.41445 4.34744
rtoes -22.7716
lfemur -69.6335 -18.1661 -25.6206
ltibia 120.51
lfoot 28.2523 11.7736
ltoes 83.8844
1428
root 6.15749 2.23089 16.7387 -67.2959 3.98939 -104.993
lowerback -3.57098 3.13962 -1.68049
upperback 2.35621 4.25817 4.29342
thorax 3.99238 2.06812 5.69694
lowerneck -12.1456 0.309994 1.01482
upperneck 29.336 -1.53142 8.88186
head 11.6655 0.71509 2.96684
rclavicle -4.45278e-014 5.00937e-014
rhumerus -20.9447 57.8532 -90.9404
rradius 88.1337
rwrist 22.3528
rhand -66.3175 153.411
rfingers 7.12502
rthumb -38.1428 -540.829
lclavicle -4.45278e-014 5.00937e-014
lhumerus 96.038 -3.46684 39.2592
lradius 30.6269
lwrist 10.9516
lhand 22.2243 21.318
lfingers 7.12502
lthumb 46.6013 44.1579
rfemur -59.5972 -6.69188 41.9964
rtibia 98.3973
rfoot 7.41046 4.34051
rtoes -22.7738
lfemur -69.6235 -18.208 -25.6275
ltibia 120.513
lfoot 28.1569 11.9377
ltoes 83.9159
1429
root 6.15752 2.23116 16.7386 -67.3038 3.99411 -104.993
lowerback -3.57319 3.1333 -1.66683
upperback 2.3682 4.24868 4.27502
thorax 4.00942 2.06309 5.67013
lowerneck -12.1068 0.318333 0.941169
upperneck 29.1426 -1.50276 8.89732
head 11.5797 0.713919 2.98026
rclavicle -9.54166e-015 -2.70347e-014
rhumerus -20.9072 57.8733 -90.9473
rradius 88.1203
rwrist 22.3491
rhand -66.3069 153.567
rfingers 7.12502
rthumb -38.1328 -540.67
lclavicle -9.54166e-015 -2.70347e-014
lhumerus 96.0532 -3.419 39.1765
lradius 30.6446
lwrist 10.9911
lhand 22.2357 21.34
lfingers 7.12502
lthumb 46.6118 44.1754
rfemur -59.589 -6.69845 41.9947
rtibia 98.3973
rfoot 7.40778 4.3371
rtoes -22.778
lfemur -69.6153 -18.1808 -25.6326
ltibia 120.51
lfoot 28.133 11.9554
ltoes 83.9487
1430
root 6.15792 2.23155 16.7376 -67.3121 4.00101 -104.994
lowerback -3.57158 3.12834 -1.65572
upperback 2.37647 4.24123 4.25548
thorax 4.0201 2.05921 5.64319
lowerneck -12.0245 0.34452 0.819618
upperneck 28.8319 -1.44161 8.9482
head 11.4382 0.722116 3.01396
rclavicle -6.36111e-014 6.87795e-014
rhumerus -20.8879 57.8867 -90.9674
rradius 88.1087
rwrist 22.3571
rhand -66.3145 154.056
rfingers 7.12502
rthumb -38.14 -540.183
lclavicle -6.36111e-014 6.87795e-014
lhumerus 96.0622 -3.40036 39.1291
lradius 30.6548
lwrist 10.9932
lhand 22.239 21.3453
lfingers 7.12502
lthumb 46.6149 44.1794
rfemur -59.5741 -6.70781 41.9898
rtibia 98.3888
rfoot 7.40707 4.33624
rtoes -22.7836
lfemur -69.606 -18.0849 -25.6376
ltibia 120.497
lfoot 28.1627 11.8742
ltoes 83.9819
